sfk_cyclingleg_x_-0.09_y_-0.04_states
version=1
nRows=8
nColumns=53
inDegrees=yes

# SIMM Motion File Header:
name sfk_cyclingleg_x_-0.09_y_-0.04_states
datacolumns 53
datarows 8
otherdata 1
range 0.22538234 0.22633027
endheader
time	/jointset/bb/crank_angle/value	/jointset/bb/crank_angle/speed	/jointset/spindle/pedal_angle_r/value	/jointset/spindle/pedal_angle_r/speed	/jointset/ground_pelvis/pelvis_tilt/value	/jointset/ground_pelvis/pelvis_tilt/speed	/jointset/ground_pelvis/pelvis_list/value	/jointset/ground_pelvis/pelvis_list/speed	/jointset/ground_pelvis/pelvis_rotation/value	/jointset/ground_pelvis/pelvis_rotation/speed	/jointset/ground_pelvis/pelvis_tx/value	/jointset/ground_pelvis/pelvis_tx/speed	/jointset/ground_pelvis/pelvis_ty/value	/jointset/ground_pelvis/pelvis_ty/speed	/jointset/ground_pelvis/pelvis_tz/value	/jointset/ground_pelvis/pelvis_tz/speed	/jointset/hip_r/hip_angle_r/value	/jointset/hip_r/hip_angle_r/speed	/jointset/hip_r/hip_adduction_r/value	/jointset/hip_r/hip_adduction_r/speed	/jointset/hip_r/hip_rotation_r/value	/jointset/hip_r/hip_rotation_r/speed	/jointset/knee_r/knee_angle_r/value	/jointset/knee_r/knee_angle_r/speed	/jointset/knee_r/tib_tx_r/value	/jointset/knee_r/tib_tx_r/speed	/jointset/knee_r/tib_ty_r/value	/jointset/knee_r/tib_ty_r/speed	/jointset/tib_pat_r/pat_angle_r/value	/jointset/tib_pat_r/pat_angle_r/speed	/jointset/tib_pat_r/pat_tx_r/value	/jointset/tib_pat_r/pat_tx_r/speed	/jointset/tib_pat_r/pat_ty_r/value	/jointset/tib_pat_r/pat_ty_r/speed	/jointset/ankle_r/ankle_angle_r/value	/jointset/ankle_r/ankle_angle_r/speed	/jointset/subtalar_r/subtalar_angle_r/value	/jointset/subtalar_r/subtalar_angle_r/speed	/jointset/mtp_r/mtp_angle_r/value	/jointset/mtp_r/mtp_angle_r/speed	/forceset/bifemlh_r/activation	/forceset/bifemlh_r/fiber_length	/forceset/bifemsh_r/activation	/forceset/bifemsh_r/fiber_length	/forceset/glut_max2_r/activation	/forceset/glut_max2_r/fiber_length	/forceset/vas_int_r/activation	/forceset/vas_int_r/fiber_length	/forceset/med_gas_r/activation	/forceset/med_gas_r/fiber_length	/forceset/tib_ant_r/activation	/forceset/tib_ant_r/fiber_length
      0.22538234	   -118.34964803	   -480.13863232	    134.07164899	    561.71358894	      0.00000000	      0.00000000	     -0.00000000	     -0.00000000	     -0.00000000	     -0.00000000	     -0.09000000	     -0.00000000	     -0.04000000	      0.00000000	     -0.00000000	     -0.00000000	     50.80650925	   -224.90314155	      4.38323814	     -0.24162323	      1.00324260	     23.59863668	    -56.92561373	    280.91384623	      0.00457581	     -0.02427212	     -0.47503565	      0.08353162	     17.32432203	     -7.56868551	      0.04371572	      0.08151431	     -0.02303741	     -0.01041415	     22.25603127	     25.15021495	     -0.00000000	     -0.00000000	      0.00000000	      0.00000000	     -0.13232586	      0.13135524	     -0.13232586	      0.16786151	     -0.13232586	      0.13883734	     -0.13232586	      0.12740536	     -0.13232586	      0.14700114	     -0.13232586	      0.11642863
      0.22552045	   -118.41596098	   -480.13863232	    134.14922715	    561.69526756	      0.00000000	      0.00000000	     -0.00000000	     -0.00000000	     -0.00000000	     -0.00000000	     -0.09000000	     -0.00000000	     -0.04000000	      0.00000000	     -0.00000000	     -0.00000000	     50.77544797	   -224.89497412	      4.38320461	     -0.24387556	      1.00650198	     23.60040965	    -56.88682289	    280.81593218	      0.00457246	     -0.02432742	     -0.47502412	      0.08347131	     17.32327519	     -7.59067584	      0.04372697	      0.08146364	     -0.02303885	     -0.01041236	     22.25950984	     25.22300325	     -0.00000000	     -0.00000000	      0.00000000	      0.00000000	     -0.13234364	      0.13134508	     -0.13234364	      0.16788360	     -0.13234364	      0.13881608	     -0.13234364	      0.12737706	     -0.13234364	      0.14701342	     -0.13234364	      0.11642575
      0.22565193	   -118.47908834	   -480.13863232	    134.22307622	    561.67769971	      0.00000000	      0.00000000	     -0.00000000	     -0.00000000	     -0.00000000	     -0.00000000	     -0.09000000	     -0.00000000	     -0.04000000	      0.00000000	     -0.00000000	     -0.00000000	     50.74587990	   -224.88693224	      4.38317241	     -0.24601708	      1.00960501	     23.60208315	    -56.84990810	    280.72234398	      0.00456926	     -0.02437987	     -0.47501315	      0.08341378	     17.32227581	     -7.61161413	      0.04373768	      0.08141532	     -0.02304022	     -0.01041065	     22.26283065	     25.29227961	     -0.00000000	     -0.00000000	      0.00000000	      0.00000000	     -0.13236057	      0.13133540	     -0.13236057	      0.16790464	     -0.13236057	      0.13879583	     -0.13236057	      0.12735013	     -0.13236057	      0.14702814	     -0.13236057	      0.11642299
      0.22579166	   -118.54617763	   -480.13863232	    134.30155756	    561.65889287	      0.00000000	      0.00000000	     -0.00000000	     -0.00000000	     -0.00000000	     -0.00000000	     -0.09000000	     -0.00000000	     -0.04000000	      0.00000000	     -0.00000000	     -0.00000000	     50.71445729	   -224.87809964	      4.38313787	     -0.24829020	      1.01290303	     23.60384624	    -56.81069002	    280.62247678	      0.00456584	     -0.02443540	     -0.47500150	      0.08335251	     17.32121069	     -7.63387093	      0.04374905	      0.08136386	     -0.02304167	     -0.01040883	     22.26636986	     25.36588704	     -0.00000000	     -0.00000000	      0.00000000	      0.00000000	     -0.13237856	      0.13132512	     -0.13237856	      0.16792698	     -0.13237856	      0.13877430	     -0.13237856	      0.12732150	     -0.13237856	      0.14704102	     -0.13237856	      0.11642006
      0.22592276	   -118.60912170	   -480.13863232	    134.37518742	    561.64111921	      0.00000000	      0.00000000	     -0.00000000	     -0.00000000	     -0.00000000	     -0.00000000	     -0.09000000	     -0.00000000	     -0.04000000	      0.00000000	     -0.00000000	     -0.00000000	     50.68497731	   -224.86954413	      4.38310518	     -0.25042024	      1.01599750	     23.60548577	    -56.77390781	    280.52839894	      0.00456264	     -0.02448730	     -0.47499057	      0.08329492	     17.32020855	     -7.65475643	      0.04375972	      0.08131549	     -0.02304304	     -0.01040712	     22.26969974	     25.43493044	     -0.00000000	     -0.00000000	      0.00000000	      0.00000000	     -0.13239544	      0.13131546	     -0.13239544	      0.16794795	     -0.13239544	      0.13875410	     -0.13239544	      0.12729464	     -0.13239544	      0.14705524	     -0.13239544	      0.11641730
      0.22605938	   -118.67472043	   -480.13863232	    134.45192012	    561.62246216	      0.00000000	      0.00000000	     -0.00000000	     -0.00000000	     -0.00000000	     -0.00000000	     -0.09000000	     -0.00000000	     -0.04000000	      0.00000000	     -0.00000000	     -0.00000000	     50.65425524	   -224.86035030	      4.38307082	     -0.25263739	      1.01922270	     23.60717922	    -56.73558746	    280.42995940	      0.00455929	     -0.02454118	     -0.47497920	      0.08323478	     17.31916124	     -7.67652652	      0.04377082	      0.08126498	     -0.02304446	     -0.01040533	     22.27317969	     25.50686876	     -0.00000000	     -0.00000000	      0.00000000	      0.00000000	     -0.13241303	      0.13130539	     -0.13241303	      0.16796979	     -0.13241303	      0.13873304	     -0.13241303	      0.12726665	     -0.13241303	      0.14706747	     -0.13241303	      0.11641441
      0.22619065	   -118.73774787	   -480.13863232	    134.52564270	    561.60440679	      0.00000000	      0.00000000	     -0.00000000	     -0.00000000	     -0.00000000	     -0.00000000	     -0.09000000	     -0.00000000	     -0.04000000	      0.00000000	     -0.00000000	     -0.00000000	     50.62473858	   -224.85124935	      4.38303752	     -0.25476499	      1.02232171	     23.60879151	    -56.69878185	    280.33499829	      0.00455606	     -0.02459275	     -0.47496827	      0.08317688	     17.31815217	     -7.69744666	      0.04378149	      0.08121635	     -0.02304583	     -0.01040360	     22.27653249	     25.57597060	     -0.00000000	     -0.00000000	      0.00000000	      0.00000000	     -0.13242993	      0.13129571	     -0.13242993	      0.16799077	     -0.13242993	      0.13871280	     -0.13242993	      0.12723976	     -0.13242993	      0.14708215	     -0.13242993	      0.11641163
      0.22633027	   -118.80478470	   -480.13863232	    134.60405241	    561.58506233	      0.00000000	      0.00000000	     -0.00000000	     -0.00000000	     -0.00000000	     -0.00000000	     -0.09000000	     -0.00000000	     -0.04000000	      0.00000000	     -0.00000000	     -0.00000000	     50.59334560	   -224.84128103	      4.38300179	     -0.25702509	      1.02561808	     23.61049028	    -56.65964863	    280.23358614	      0.00455263	     -0.02464738	     -0.47495666	      0.08311517	     17.31707591	     -7.71970097	      0.04379282	      0.08116453	     -0.02304728	     -0.01040176	     22.28010853	     25.64944984	     -0.00000000	     -0.00000000	      0.00000000	      0.00000000	     -0.13244790	      0.13128541	     -0.13244790	      0.16801309	     -0.13244790	      0.13869126	     -0.13244790	      0.12721117	     -0.13244790	      0.14709489	     -0.13244790	      0.11640866
